<svg width="189" height="145" viewBox="0 0 189 145" fill="none" xmlns="http://www.w3.org/2000/svg">
<path d="M5.72 71.5V104.94C5.72 107.8 7.92 110 10.78 110C13.64 110 15.84 107.8 15.84 104.94V71.5C15.84 55.88 28.6 43.12 44.22 43.12C59.84 43.12 72.6 55.88 72.6 71.5V104.94C72.6 107.8 74.8 110 77.66 110C80.52 110 82.72 107.8 82.72 104.94V71.5C82.72 50.38 65.34 33 44.22 33C23.1 33 5.72 50.38 5.72 71.5ZM94.2356 104.94C94.2356 107.8 96.4356 110 99.2956 110C102.156 110 104.356 107.8 104.356 104.94V38.06C104.356 35.2 102.156 33 99.2956 33C96.4356 33 94.2356 35.2 94.2356 38.06V104.94ZM94.2356 6.15999C94.2356 9.02 96.2156 11.22 99.0756 11.22C101.936 11.22 104.356 9.02 104.356 6.15999C104.356 3.3 101.936 1.09999 99.0756 1.09999C96.2156 1.09999 94.2356 3.3 94.2356 6.15999ZM154.22 110C164.78 110 174.24 105.6 181.28 98.78C183.26 96.8 183.26 93.72 181.28 91.74C179.3 89.54 176.22 89.54 174.02 91.74C168.96 96.8 161.92 99.88 154.22 99.88C138.6 99.88 125.84 87.12 125.84 71.5C125.84 55.88 138.6 43.12 154.22 43.12C161.92 43.12 169.18 46.2 174.02 51.26C176.22 53.46 179.3 53.46 181.28 51.26C183.26 49.28 183.26 46.2 181.28 44.22C174.24 37.4 164.78 33 154.22 33C133.1 33 115.72 50.38 115.72 71.5C115.72 92.62 133.1 110 154.22 110Z" fill="black"/>
<rect x="93" width="11.5" height="11.5" rx="5.75" fill="#1C8FFB"/>
<path d="M102.977 123.273V132H101.955L97.1989 125.148H97.1136V132H96.0568V123.273H97.0795L101.852 130.142H101.938V123.273H102.977ZM107.7 132.136C107.069 132.136 106.525 131.997 106.068 131.719C105.613 131.438 105.262 131.045 105.015 130.543C104.771 130.037 104.649 129.449 104.649 128.778C104.649 128.108 104.771 127.517 105.015 127.006C105.262 126.491 105.606 126.091 106.047 125.804C106.49 125.514 107.007 125.369 107.598 125.369C107.939 125.369 108.275 125.426 108.608 125.54C108.94 125.653 109.243 125.838 109.515 126.094C109.788 126.347 110.005 126.682 110.167 127.099C110.329 127.517 110.41 128.031 110.41 128.642V129.068H105.365V128.199H109.387C109.387 127.83 109.314 127.5 109.166 127.21C109.021 126.92 108.814 126.692 108.544 126.524C108.277 126.357 107.961 126.273 107.598 126.273C107.197 126.273 106.85 126.372 106.558 126.571C106.268 126.767 106.045 127.023 105.889 127.338C105.733 127.653 105.654 127.991 105.654 128.352V128.932C105.654 129.426 105.74 129.845 105.91 130.189C106.083 130.53 106.324 130.79 106.63 130.969C106.937 131.145 107.294 131.233 107.7 131.233C107.964 131.233 108.203 131.196 108.416 131.122C108.632 131.045 108.818 130.932 108.974 130.781C109.13 130.628 109.251 130.437 109.336 130.21L110.308 130.483C110.206 130.812 110.034 131.102 109.792 131.352C109.551 131.599 109.252 131.793 108.897 131.932C108.542 132.068 108.143 132.136 107.7 132.136ZM114.684 132.136C114.054 132.136 113.51 131.997 113.052 131.719C112.598 131.438 112.247 131.045 112 130.543C111.755 130.037 111.633 129.449 111.633 128.778C111.633 128.108 111.755 127.517 112 127.006C112.247 126.491 112.591 126.091 113.031 125.804C113.474 125.514 113.991 125.369 114.582 125.369C114.923 125.369 115.26 125.426 115.592 125.54C115.924 125.653 116.227 125.838 116.5 126.094C116.772 126.347 116.99 126.682 117.152 127.099C117.314 127.517 117.395 128.031 117.395 128.642V129.068H112.349V128.199H116.372C116.372 127.83 116.298 127.5 116.15 127.21C116.005 126.92 115.798 126.692 115.528 126.524C115.261 126.357 114.946 126.273 114.582 126.273C114.181 126.273 113.835 126.372 113.542 126.571C113.252 126.767 113.029 127.023 112.873 127.338C112.717 127.653 112.639 127.991 112.639 128.352V128.932C112.639 129.426 112.724 129.845 112.895 130.189C113.068 130.53 113.308 130.79 113.615 130.969C113.922 131.145 114.278 131.233 114.684 131.233C114.949 131.233 115.187 131.196 115.4 131.122C115.616 131.045 115.802 130.932 115.958 130.781C116.115 130.628 116.235 130.437 116.321 130.21L117.292 130.483C117.19 130.812 117.018 131.102 116.777 131.352C116.535 131.599 116.237 131.793 115.882 131.932C115.527 132.068 115.127 132.136 114.684 132.136ZM121.396 132.136C120.85 132.136 120.369 131.999 119.951 131.723C119.534 131.445 119.207 131.053 118.971 130.547C118.735 130.038 118.618 129.438 118.618 128.744C118.618 128.057 118.735 127.46 118.971 126.955C119.207 126.449 119.535 126.058 119.956 125.783C120.376 125.507 120.862 125.369 121.413 125.369C121.839 125.369 122.176 125.44 122.423 125.582C122.673 125.722 122.863 125.881 122.994 126.06C123.127 126.236 123.231 126.381 123.305 126.494H123.39V123.273H124.396V132H123.424V130.994H123.305C123.231 131.114 123.126 131.264 122.99 131.446C122.853 131.625 122.659 131.786 122.406 131.928C122.153 132.067 121.816 132.136 121.396 132.136ZM121.532 131.233C121.936 131.233 122.277 131.128 122.555 130.918C122.833 130.705 123.045 130.411 123.19 130.036C123.335 129.658 123.407 129.222 123.407 128.727C123.407 128.239 123.336 127.811 123.194 127.445C123.052 127.075 122.842 126.788 122.564 126.584C122.285 126.376 121.941 126.273 121.532 126.273C121.106 126.273 120.751 126.382 120.467 126.601C120.186 126.817 119.974 127.111 119.832 127.483C119.693 127.852 119.623 128.267 119.623 128.727C119.623 129.193 119.694 129.616 119.836 129.997C119.981 130.375 120.194 130.676 120.475 130.901C120.76 131.122 121.112 131.233 121.532 131.233Z" fill="#736F6F"/>
<path d="M130.946 123.273V132H129.889V123.273H130.946ZM133.934 128.062V132H132.928V125.455H133.9V126.477H133.985C134.138 126.145 134.371 125.878 134.684 125.676C134.996 125.472 135.4 125.369 135.894 125.369C136.337 125.369 136.725 125.46 137.058 125.642C137.39 125.821 137.648 126.094 137.833 126.46C138.018 126.824 138.11 127.284 138.11 127.841V132H137.104V127.909C137.104 127.395 136.971 126.994 136.704 126.707C136.437 126.418 136.07 126.273 135.604 126.273C135.283 126.273 134.996 126.342 134.744 126.482C134.494 126.621 134.296 126.824 134.151 127.091C134.006 127.358 133.934 127.682 133.934 128.062ZM150.482 126H149.425C149.363 125.696 149.253 125.429 149.097 125.199C148.944 124.969 148.756 124.776 148.534 124.619C148.316 124.46 148.073 124.341 147.806 124.261C147.539 124.182 147.26 124.142 146.971 124.142C146.442 124.142 145.963 124.276 145.534 124.543C145.108 124.81 144.769 125.203 144.516 125.723C144.266 126.243 144.141 126.881 144.141 127.636C144.141 128.392 144.266 129.03 144.516 129.55C144.769 130.07 145.108 130.463 145.534 130.73C145.963 130.997 146.442 131.131 146.971 131.131C147.26 131.131 147.539 131.091 147.806 131.011C148.073 130.932 148.316 130.814 148.534 130.658C148.756 130.499 148.944 130.304 149.097 130.074C149.253 129.841 149.363 129.574 149.425 129.273H150.482C150.402 129.719 150.257 130.118 150.047 130.47C149.837 130.822 149.576 131.122 149.263 131.369C148.951 131.614 148.6 131.8 148.211 131.928C147.824 132.055 147.411 132.119 146.971 132.119C146.226 132.119 145.564 131.938 144.985 131.574C144.405 131.21 143.949 130.693 143.617 130.023C143.284 129.352 143.118 128.557 143.118 127.636C143.118 126.716 143.284 125.92 143.617 125.25C143.949 124.58 144.405 124.062 144.985 123.699C145.564 123.335 146.226 123.153 146.971 123.153C147.411 123.153 147.824 123.217 148.211 123.345C148.6 123.473 148.951 123.661 149.263 123.908C149.576 124.152 149.837 124.45 150.047 124.803C150.257 125.152 150.402 125.551 150.482 126ZM153.059 128.062V132H152.053V123.273H153.059V126.477H153.144C153.298 126.139 153.528 125.871 153.835 125.672C154.144 125.47 154.556 125.369 155.07 125.369C155.516 125.369 155.907 125.459 156.242 125.638C156.577 125.814 156.837 126.085 157.022 126.452C157.21 126.815 157.303 127.278 157.303 127.841V132H156.298V127.909C156.298 127.389 156.163 126.987 155.893 126.703C155.626 126.416 155.255 126.273 154.781 126.273C154.451 126.273 154.156 126.342 153.894 126.482C153.636 126.621 153.431 126.824 153.281 127.091C153.133 127.358 153.059 127.682 153.059 128.062ZM161.802 132.136C161.211 132.136 160.693 131.996 160.247 131.714C159.804 131.433 159.457 131.04 159.207 130.534C158.96 130.028 158.836 129.437 158.836 128.761C158.836 128.08 158.96 127.484 159.207 126.976C159.457 126.467 159.804 126.072 160.247 125.791C160.693 125.51 161.211 125.369 161.802 125.369C162.393 125.369 162.91 125.51 163.353 125.791C163.799 126.072 164.146 126.467 164.393 126.976C164.643 127.484 164.768 128.08 164.768 128.761C164.768 129.437 164.643 130.028 164.393 130.534C164.146 131.04 163.799 131.433 163.353 131.714C162.91 131.996 162.393 132.136 161.802 132.136ZM161.802 131.233C162.251 131.233 162.62 131.118 162.91 130.888C163.2 130.658 163.414 130.355 163.554 129.98C163.693 129.605 163.762 129.199 163.762 128.761C163.762 128.324 163.693 127.916 163.554 127.538C163.414 127.161 163.2 126.855 162.91 126.622C162.62 126.389 162.251 126.273 161.802 126.273C161.353 126.273 160.984 126.389 160.694 126.622C160.404 126.855 160.19 127.161 160.051 127.538C159.912 127.916 159.842 128.324 159.842 128.761C159.842 129.199 159.912 129.605 160.051 129.98C160.19 130.355 160.404 130.658 160.694 130.888C160.984 131.118 161.353 131.233 161.802 131.233ZM166.303 132V125.455H167.309V132H166.303ZM166.815 124.364C166.619 124.364 166.45 124.297 166.308 124.163C166.168 124.03 166.099 123.869 166.099 123.682C166.099 123.494 166.168 123.334 166.308 123.2C166.45 123.067 166.619 123 166.815 123C167.011 123 167.178 123.067 167.317 123.2C167.46 123.334 167.531 123.494 167.531 123.682C167.531 123.869 167.46 124.03 167.317 124.163C167.178 124.297 167.011 124.364 166.815 124.364ZM171.81 132.136C171.196 132.136 170.668 131.991 170.225 131.702C169.782 131.412 169.441 131.013 169.202 130.504C168.963 129.996 168.844 129.415 168.844 128.761C168.844 128.097 168.966 127.51 169.211 127.001C169.458 126.49 169.801 126.091 170.242 125.804C170.685 125.514 171.202 125.369 171.793 125.369C172.253 125.369 172.668 125.455 173.037 125.625C173.407 125.795 173.709 126.034 173.945 126.341C174.181 126.648 174.327 127.006 174.384 127.415H173.378C173.301 127.116 173.131 126.852 172.867 126.622C172.605 126.389 172.253 126.273 171.81 126.273C171.418 126.273 171.074 126.375 170.779 126.58C170.486 126.781 170.257 127.067 170.093 127.436C169.931 127.803 169.85 128.233 169.85 128.727C169.85 129.233 169.929 129.673 170.088 130.048C170.25 130.423 170.478 130.714 170.77 130.922C171.066 131.129 171.412 131.233 171.81 131.233C172.071 131.233 172.309 131.188 172.522 131.097C172.735 131.006 172.915 130.875 173.063 130.705C173.211 130.534 173.316 130.33 173.378 130.091H174.384C174.327 130.477 174.186 130.825 173.962 131.135C173.74 131.442 173.446 131.686 173.08 131.868C172.716 132.047 172.293 132.136 171.81 132.136ZM178.598 132.136C177.968 132.136 177.424 131.997 176.966 131.719C176.512 131.438 176.161 131.045 175.914 130.543C175.669 130.037 175.547 129.449 175.547 128.778C175.547 128.108 175.669 127.517 175.914 127.006C176.161 126.491 176.505 126.091 176.945 125.804C177.388 125.514 177.905 125.369 178.496 125.369C178.837 125.369 179.174 125.426 179.506 125.54C179.838 125.653 180.141 125.838 180.414 126.094C180.686 126.347 180.904 126.682 181.066 127.099C181.228 127.517 181.309 128.031 181.309 128.642V129.068H176.263V128.199H180.286C180.286 127.83 180.212 127.5 180.064 127.21C179.919 126.92 179.712 126.692 179.442 126.524C179.175 126.357 178.86 126.273 178.496 126.273C178.096 126.273 177.749 126.372 177.456 126.571C177.167 126.767 176.944 127.023 176.787 127.338C176.631 127.653 176.553 127.991 176.553 128.352V128.932C176.553 129.426 176.638 129.845 176.809 130.189C176.982 130.53 177.222 130.79 177.529 130.969C177.836 131.145 178.192 131.233 178.598 131.233C178.863 131.233 179.101 131.196 179.314 131.122C179.53 131.045 179.716 130.932 179.873 130.781C180.029 130.628 180.15 130.437 180.235 130.21L181.206 130.483C181.104 130.812 180.932 131.102 180.691 131.352C180.449 131.599 180.151 131.793 179.796 131.932C179.441 132.068 179.042 132.136 178.598 132.136Z" fill="#1C8FFB"/>
</svg>
